<svg xmlns="http://www.w3.org/2000/svg" viewBox="0 0 200 220"><defs><radialGradient id="nurGlow" cx="50%" cy="50%" r="50%"><stop offset="0" stop-color="#fff1b8" stop-opacity=".95"/><stop offset=".45" stop-color="#ffd76a" stop-opacity=".38"/><stop offset="1" stop-color="#ffd76a" stop-opacity="0"/></radialGradient>
<radialGradient id="nurBulb" cx="40%" cy="40%" r="70%"><stop offset="0" stop-color="#fffdf2"/><stop offset=".55" stop-color="#ffe894"/><stop offset="1" stop-color="#ffc443"/></radialGradient>
<clipPath id="bulbClip"><circle cx="100" cy="124" r="40"/></clipPath>
<clipPath id="shadeClip"><path d="M50 102 Q48 98 52 94 L72 44 Q74 38 80 38 L120 38 Q126 38 128 44 L148 94 Q152 98 150 102 Z"/></clipPath>
</defs><g><circle cx="100" cy="118" r="100" fill="url(#nurGlow)"/><path d="M58 110 L28 206 Q100 222 172 206 L142 110Z" fill="#ffd76a" opacity=".16"/><ellipse cx="100" cy="208" rx="54" ry="7" fill="#101a2c" opacity=".18"/><rect x="91" y="150" width="18" height="40" rx="4" fill="#22345a" stroke="#101a2c" stroke-width="4.5"/><path d="M60 196 Q100 180 140 196 L140 202 Q100 216 60 202Z" fill="#22345a" stroke="#101a2c" stroke-width="4.5" stroke-linejoin="round"/><circle cx="80" cy="197" r="4.5" fill="#6fe3d3" stroke="#101a2c" stroke-width="2.5"/><circle cx="100" cy="124" r="42" fill="url(#nurBulb)" stroke="#101a2c" stroke-width="5"/><path d="M118 88 A42 42 0 0 1 112 164 A48 48 0 0 0 118 88Z" fill="#f2a93b" opacity="0.55"/><path d="M138 198 C178 196 180 170 148 170 C120 170 96 174 74 182" stroke="#101a2c" stroke-width="5" fill="none" stroke-linecap="round" stroke-linejoin="round" /><circle cx="72" cy="183" r="6.5" fill="#ffd76a" stroke="#101a2c" stroke-width="3.5"/><path d="M76 118 q10 6 20 0 M104 118 q10 6 20 0" stroke="#101a2c" stroke-width="5" fill="none" stroke-linecap="round" stroke-linejoin="round" /><path d="M74 108 l20 5 M126 108 l-20 5" stroke="#101a2c" stroke-width="4.5" fill="none" stroke-linecap="round" stroke-linejoin="round" /><ellipse cx="70" cy="134" rx="9" ry="6" fill="#ff8a6e" opacity=".7"/><ellipse cx="132" cy="134" rx="9" ry="6" fill="#ff8a6e" opacity=".7"/><path d="M95 147 q5 -5 10 0" stroke="#101a2c" stroke-width="4.5" fill="none" stroke-linecap="round" stroke-linejoin="round" /><g transform="translate(0 10) rotate(8 100 100)"><path d="M50 102 Q48 98 52 94 L72 44 Q74 38 80 38 L120 38 Q126 38 128 44 L148 94 Q152 98 150 102 Z" fill="#22345a" stroke="#101a2c" stroke-width="5" stroke-linejoin="round"/><path d="M112 40 L120 38 Q126 38 128 44 L148 94 Q152 98 150 102 L128 102 Z" fill="#0f1a30" opacity="0.55"/><path d="M56 88 L144 88" stroke="#6fe3d3" stroke-width="6" fill="none" stroke-linecap="round" stroke-linejoin="round" /><path d="M78 50 L66 82" stroke="#fff" stroke-width="4" stroke-linecap="round" opacity=".22"/><rect x="92" y="28" width="16" height="12" rx="4" fill="#6fe3d3" stroke="#101a2c" stroke-width="4"/></g><path d="M30 118 h-14 M32 130 l-12 5 M32 106 l-12 -5" stroke="#9fb3c8" stroke-width="4" fill="none" stroke-linecap="round" stroke-linejoin="round" /></g></svg>