<svg xmlns="http://www.w3.org/2000/svg" viewBox="0 0 240 220"><ellipse cx="120.0" cy="212" rx="91" ry="8" fill="#05030f" opacity=".35"/><circle cx="120.0" cy="114" r="110" fill="#ffd76a" opacity=".2"/><rect x="113" y="18" width="14" height="60" rx="5" fill="#4a3fb0" stroke="#b9b3f5" stroke-width="5" stroke-linejoin="round"/><path d="M24 150 v32 a96 24 0 0 0 192 0 v-32 Z" fill="#33298a" stroke="#b9b3f5" stroke-width="6" stroke-linejoin="round" stroke-linecap="round"/><ellipse cx="120" cy="150" rx="96" ry="24" fill="#4a3fb0" stroke="#b9b3f5" stroke-width="6"/><path d="M50 104 v22 a70 19 0 0 0 140 0 v-22 Z" fill="#33298a" stroke="#b9b3f5" stroke-width="6" stroke-linejoin="round" stroke-linecap="round"/><ellipse cx="120" cy="104" rx="70" ry="19" fill="#5d51c6" stroke="#b9b3f5" stroke-width="6"/><path d="M76 66 v16 a44 14 0 0 0 88 0 v-16 Z" fill="#33298a" stroke="#b9b3f5" stroke-width="6" stroke-linejoin="round" stroke-linecap="round"/><ellipse cx="120" cy="66" rx="44" ry="14" fill="#4a3fb0" stroke="#b9b3f5" stroke-width="6"/><rect x="113" y="14" width="14" height="50" rx="5" fill="#4a3fb0" stroke="#b9b3f5" stroke-width="5" stroke-linejoin="round"/><circle cx="92" cy="174" r="14.5" fill="#ffd76a" opacity=".25"/><circle cx="92" cy="174" r="10" fill="#ffd76a"/><circle cx="92" cy="175.0" r="4.6" fill="#1a0d12"/><circle cx="148" cy="174" r="14.5" fill="#ffd76a" opacity=".25"/><circle cx="148" cy="174" r="10" fill="#ffd76a"/><circle cx="148" cy="175.0" r="4.6" fill="#1a0d12"/><path d="M104 192 l6 6 5 -6 5 6 5 -6 6 6" fill="none" stroke="#f7efdc" stroke-width="3.5" stroke-linecap="round" stroke-linejoin="round" opacity="0.9"/><path d="M70 104 l12 -6 v12 z M158 98 l12 6 -12 6 z" fill="#f7efdc" opacity=".85"/><circle cx="46" cy="150" r="5" fill="#f7efdc" opacity=".85"/><circle cx="194" cy="150" r="5" fill="#f7efdc" opacity=".85"/></svg>