<svg xmlns="http://www.w3.org/2000/svg" viewBox="0 0 240 220"><ellipse cx="120.0" cy="206" rx="91" ry="8" fill="#05030f" opacity=".35"/><circle cx="120.0" cy="114" r="110" fill="#ffd76a" opacity=".2"/><rect x="71.0" y="190" width="30" height="22" rx="8" fill="#4a3fb0" stroke="#b9b3f5" stroke-width="5"/><rect x="139.0" y="190" width="30" height="22" rx="8" fill="#4a3fb0" stroke="#b9b3f5" stroke-width="5"/><rect x="60" y="24" width="120" height="172" rx="10" fill="#4a3fb0" stroke="#b9b3f5" stroke-width="6" stroke-linejoin="round"/><path d="M60 88 H180 M60 142 H180 M100 88 V196 M140 88 V196" fill="none" stroke="#d5d1fb" stroke-width="3" stroke-linecap="round" stroke-linejoin="round" opacity="0.7"/><circle cx="98" cy="52.4" r="15" fill="#ffd76a" opacity=".25"/><circle cx="98" cy="52.4" r="10.3" fill="#ffd76a"/><circle cx="99.2" cy="53.6" r="5.0" fill="#1a0d12"/><circle cx="101.1" cy="51.4" r="1.8" fill="#fffdf2"/><circle cx="142" cy="52.4" r="15" fill="#ffd76a" opacity=".25"/><circle cx="142" cy="52.4" r="10.3" fill="#ffd76a"/><circle cx="140.8" cy="53.6" r="5.0" fill="#1a0d12"/><circle cx="142.7" cy="51.4" r="1.8" fill="#fffdf2"/><path d="M104.5 64 Q120 85 135.5 64 Z" fill="#1a1340" stroke="#1a1340" stroke-width="3.0" stroke-linejoin="round"/><path d="M113.0 70.5 Q120 79 127.0 70.5 Q120 67.0 113.0 70.5 Z" fill="#ff8a6e"/><circle cx="80" cy="116" r="10" fill="#f7efdc"/><path d="M120 104 l11 20 h-22 z" fill="#f7efdc"/><rect x="151" y="106" width="19" height="19" fill="#f7efdc"/><path d="M80 158 l11 20 h-22 z" fill="#f7efdc"/><rect x="111" y="160" width="19" height="19" fill="#f7efdc"/><text x="160" y="180" text-anchor="middle" font-family="Arial, Helvetica, sans-serif" font-weight="700" font-size="22" fill="#ffd76a" opacity="1">?</text></svg>