<svg xmlns="http://www.w3.org/2000/svg" viewBox="0 0 240 220"><circle cx="120.0" cy="114" r="110" fill="#ffd76a" opacity=".2"/><rect x="45.0" y="184" width="30" height="22" rx="8" fill="#4a3fb0" stroke="#b9b3f5" stroke-width="5"/><rect x="155.0" y="184" width="30" height="22" rx="8" fill="#4a3fb0" stroke="#b9b3f5" stroke-width="5"/><path d="M64.0 92.0 L220.0 190.0 L20.0 190.0 Z" fill="#4a3fb0" stroke="#b9b3f5" stroke-width="6" stroke-linejoin="round" stroke-linecap="round"/><path d="M44 168 L63 130" fill="none" stroke="#d5d1fb" stroke-width="5" stroke-linecap="round" stroke-linejoin="round" opacity="0.55"/><circle cx="82" cy="152.2" r="14" fill="#ffd76a" opacity=".25"/><circle cx="82" cy="152.2" r="9.5" fill="#ffd76a"/><circle cx="83.1" cy="153.3" r="4.6" fill="#1a0d12"/><circle cx="84.9" cy="151.3" r="1.6" fill="#fffdf2"/><circle cx="118" cy="152.2" r="14" fill="#ffd76a" opacity=".25"/><circle cx="118" cy="152.2" r="9.5" fill="#ffd76a"/><circle cx="116.9" cy="153.3" r="4.6" fill="#1a0d12"/><circle cx="118.7" cy="151.3" r="1.6" fill="#fffdf2"/><path d="M86.6 168 Q104 192 121.4 168 Z" fill="#1a1340" stroke="#1a1340" stroke-width="3.0" stroke-linejoin="round"/><path d="M96.2 175.3 Q104 185 111.8 175.3 Q104 171.4 96.2 175.3 Z" fill="#ff8a6e"/><text x="30" y="134" text-anchor="middle" font-family="Arial, Helvetica, sans-serif" font-weight="700" font-size="20" fill="#d5d1fb" opacity="1">a</text><text x="158" y="128" text-anchor="middle" font-family="Arial, Helvetica, sans-serif" font-weight="700" font-size="20" fill="#d5d1fb" opacity="1">b</text><text x="120" y="214" text-anchor="middle" font-family="Arial, Helvetica, sans-serif" font-weight="700" font-size="20" fill="#d5d1fb" opacity="1">c</text><text x="150" y="70" text-anchor="middle" font-family="Arial, Helvetica, sans-serif" font-weight="700" font-size="18" fill="#d5d1fb" opacity="1">a &lt; b &lt; c</text></svg>