<svg xmlns="http://www.w3.org/2000/svg" viewBox="0 0 240 220"><ellipse cx="120.0" cy="206" rx="91" ry="8" fill="#05030f" opacity=".35"/><rect x="77.0" y="184" width="30" height="22" rx="8" fill="#2b2263" stroke="#5a4cc2" stroke-width="5"/><rect x="133.0" y="184" width="30" height="22" rx="8" fill="#2b2263" stroke="#5a4cc2" stroke-width="5"/><circle cx="120" cy="108" r="86" fill="#2b2263" stroke="#5a4cc2" stroke-width="6"/><path d="M58 66 L120 192 L186 72" fill="none" stroke="#8d80f0" stroke-width="4" stroke-linecap="round" stroke-linejoin="round" opacity="0.5"/><path d="M62 60 A74 74 0 0 1 96 38" fill="none" stroke="#8d80f0" stroke-width="5" stroke-linecap="round" stroke-linejoin="round" opacity="0.55"/><circle cx="92" cy="92" r="23" fill="#ff8a6e" opacity=".22"/><path d="M75 92 a17 14.4 0 0 0 34 0 z" fill="#ff8a6e"/><ellipse cx="94.0" cy="98.1" rx="3.6" ry="6.5" fill="#1a0d12"/><path d="M72 81 L110 94" stroke="#0e0a2a" stroke-width="7.5" stroke-linecap="round"/><circle cx="148" cy="92" r="23" fill="#ff8a6e" opacity=".22"/><path d="M131 92 a17 14.4 0 0 0 34 0 z" fill="#ff8a6e"/><ellipse cx="146.0" cy="98.1" rx="3.6" ry="6.5" fill="#1a0d12"/><path d="M168 81 L130 94" stroke="#0e0a2a" stroke-width="7.5" stroke-linecap="round"/><path d="M70.0 130 Q120 144 170.0 130 Q120 174 70.0 130 Z" fill="#0a0820" stroke="#0a0820" stroke-width="3" stroke-linejoin="round"/><path d="M82.0 135.0 l7.6 11.0 l7.6 -11.0 l7.6 11.0 l7.6 -11.0 l7.6 11.0 l7.6 -11.0 l7.6 11.0 l7.6 -11.0 l7.6 11.0 l7.6 -11.0" fill="none" stroke="#f7efdc" stroke-width="4.5" stroke-linejoin="round" stroke-linecap="round"/></svg>