<svg xmlns="http://www.w3.org/2000/svg" viewBox="0 0 240 220"><ellipse cx="120.0" cy="208" rx="60" ry="8" fill="#05030f" opacity=".35"/><rect x="97" y="18" width="46" height="46" rx="3" fill="#2b2263" stroke="#5a4cc2" stroke-width="5" stroke-linejoin="round"/><rect x="97" y="64" width="46" height="46" rx="3" fill="#2b2263" stroke="#5a4cc2" stroke-width="5" stroke-linejoin="round"/><rect x="97" y="110" width="46" height="46" rx="3" fill="#2b2263" stroke="#5a4cc2" stroke-width="5" stroke-linejoin="round"/><rect x="97" y="156" width="46" height="46" rx="3" fill="#2b2263" stroke="#5a4cc2" stroke-width="5" stroke-linejoin="round"/><rect x="51" y="64" width="46" height="46" rx="3" fill="#2b2263" stroke="#5a4cc2" stroke-width="5" stroke-linejoin="round"/><path d="M143 64 L186 46 L186 92 L143 110 Z" fill="#160f3d" stroke="#5a4cc2" stroke-width="5" stroke-linejoin="round" stroke-linecap="round"/><circle cx="120" cy="87" r="18" fill="#ff8a6e" opacity=".2"/><circle cx="120" cy="87" r="13" fill="#ff8a6e"/><ellipse cx="120" cy="89.0" rx="2.7" ry="7.8" fill="#1a0d12"/><path d="M104 80 Q120 70 136 80" stroke="#0e0a2a" stroke-width="4.0" fill="none" stroke-linecap="round"/><path d="M102.0 124 Q120 129 138.0 124 Q120 140 102.0 124 Z" fill="#0a0820" stroke="#0a0820" stroke-width="3" stroke-linejoin="round"/><path d="M106.3 125.8 l6.8 5.0 l6.8 -5.0 l6.8 5.0 l6.8 -5.0" fill="none" stroke="#f7efdc" stroke-width="3.0" stroke-linejoin="round" stroke-linecap="round"/><circle cx="120" cy="41" r="4" fill="#f7efdc" opacity=".9"/><circle cx="64" cy="77" r="4" fill="#f7efdc" opacity=".9"/><circle cx="84" cy="97" r="4" fill="#f7efdc" opacity=".9"/><circle cx="110" cy="170" r="4" fill="#f7efdc" opacity=".9"/><circle cx="120" cy="179" r="4" fill="#f7efdc" opacity=".9"/><circle cx="130" cy="188" r="4" fill="#f7efdc" opacity=".9"/><circle cx="160" cy="70" r="4" fill="#f7efdc" opacity=".9"/><circle cx="170" cy="84" r="4" fill="#f7efdc" opacity=".9"/></svg>