<svg xmlns="http://www.w3.org/2000/svg" viewBox="0 0 240 220"><ellipse cx="120.0" cy="206" rx="91" ry="8" fill="#05030f" opacity=".35"/><path d="M92 40 Q84 16 70 10 M148 40 Q156 16 170 10" fill="none" stroke="#5a4cc2" stroke-width="5" stroke-linecap="round" stroke-linejoin="round" opacity="1"/><circle cx="70" cy="10" r="6" fill="#ff8a6e" stroke="#5a4cc2" stroke-width="3"/><circle cx="170" cy="10" r="6" fill="#ff8a6e" stroke="#5a4cc2" stroke-width="3"/><rect x="77.0" y="180" width="30" height="22" rx="8" fill="#2b2263" stroke="#5a4cc2" stroke-width="5"/><rect x="133.0" y="180" width="30" height="22" rx="8" fill="#2b2263" stroke="#5a4cc2" stroke-width="5"/><path d="M204.0 112.0 L162.0 185.0 L78.0 185.0 L36.0 112.0 L78.0 39.0 L162.0 39.0 Z" fill="#2b2263" stroke="#5a4cc2" stroke-width="6" stroke-linejoin="round" stroke-linecap="round"/><path d="M79 159 L63 130" fill="none" stroke="#8d80f0" stroke-width="5" stroke-linecap="round" stroke-linejoin="round" opacity="0.55"/><path d="M120 39 v22 l-19 11 M120 61 l19 11 M101 72 v0 M60 148 l19 11 v22 M180 148 l-19 11 v22" fill="none" stroke="#8d80f0" stroke-width="3" stroke-linecap="round" stroke-linejoin="round" opacity="0.6"/><circle cx="92" cy="104" r="23" fill="#ff8a6e" opacity=".22"/><path d="M75 104 a17 14.4 0 0 0 34 0 z" fill="#ff8a6e"/><ellipse cx="94.0" cy="110.1" rx="3.6" ry="6.5" fill="#1a0d12"/><path d="M72 93 L110 106" stroke="#0e0a2a" stroke-width="7.5" stroke-linecap="round"/><circle cx="148" cy="104" r="23" fill="#ff8a6e" opacity=".22"/><path d="M131 104 a17 14.4 0 0 0 34 0 z" fill="#ff8a6e"/><ellipse cx="146.0" cy="110.1" rx="3.6" ry="6.5" fill="#1a0d12"/><path d="M168 93 L130 106" stroke="#0e0a2a" stroke-width="7.5" stroke-linecap="round"/><path d="M72.0 138 Q120 151 168.0 138 Q120 180 72.0 138 Z" fill="#0a0820" stroke="#0a0820" stroke-width="3" stroke-linejoin="round"/><path d="M83.5 142.8 l7.3 10.6 l7.3 -10.6 l7.3 10.6 l7.3 -10.6 l7.3 10.6 l7.3 -10.6 l7.3 10.6 l7.3 -10.6 l7.3 10.6 l7.3 -10.6" fill="none" stroke="#f7efdc" stroke-width="4.3" stroke-linejoin="round" stroke-linecap="round"/></svg>