<svg xmlns="http://www.w3.org/2000/svg" viewBox="0 0 240 220"><ellipse cx="120.0" cy="206" rx="91" ry="8" fill="#05030f" opacity=".35"/><rect x="55.0" y="190" width="30" height="22" rx="8" fill="#2b2263" stroke="#5a4cc2" stroke-width="5"/><rect x="123.0" y="190" width="30" height="22" rx="8" fill="#2b2263" stroke="#5a4cc2" stroke-width="5"/><rect x="160" y="24" width="56" height="54" rx="10" fill="#3a2f80" stroke="#5a4cc2" stroke-width="6" stroke-linejoin="round"/><circle cx="188" cy="46" r="13.5" fill="#ff8a6e" opacity=".22"/><circle cx="188" cy="46" r="9" fill="#ff8a6e"/><ellipse cx="188" cy="46.9" rx="2.2" ry="5.4" fill="#1a0d12"/><path d="M178 62 q10 8 20 0" fill="none" stroke="#0a0820" stroke-width="4" stroke-linecap="round" stroke-linejoin="round" opacity="1"/><path d="M226 70 V30 M218 40 l8 -10 8 10" fill="none" stroke="#8d80f0" stroke-width="4" stroke-linecap="round" stroke-linejoin="round" opacity="0.8"/><rect x="36" y="72" width="132" height="124" rx="14" fill="#2b2263" stroke="#5a4cc2" stroke-width="6" stroke-linejoin="round"/><path d="M52 90 V170" fill="none" stroke="#8d80f0" stroke-width="5" stroke-linecap="round" stroke-linejoin="round" opacity="0.55"/><circle cx="79" cy="118" r="19" fill="#ff8a6e" opacity=".22"/><path d="M65 118 a14 11.9 0 0 0 28 0 z" fill="#ff8a6e"/><ellipse cx="80.7" cy="123.0" rx="2.9" ry="5.3" fill="#1a0d12"/><path d="M62 109 L94 120" stroke="#0e0a2a" stroke-width="6.2" stroke-linecap="round"/><circle cx="125" cy="118" r="19" fill="#ff8a6e" opacity=".22"/><path d="M111 118 a14 11.9 0 0 0 28 0 z" fill="#ff8a6e"/><ellipse cx="123.3" cy="123.0" rx="2.9" ry="5.3" fill="#1a0d12"/><path d="M142 109 L110 120" stroke="#0e0a2a" stroke-width="6.2" stroke-linecap="round"/><path d="M63.0 150 Q102 161 141.0 150 Q102 184 63.0 150 Z" fill="#0a0820" stroke="#0a0820" stroke-width="3" stroke-linejoin="round"/><path d="M72.4 153.9 l9.9 8.6 l9.9 -8.6 l9.9 8.6 l9.9 -8.6 l9.9 8.6 l9.9 -8.6" fill="none" stroke="#f7efdc" stroke-width="3.5" stroke-linejoin="round" stroke-linecap="round"/></svg>