<svg xmlns="http://www.w3.org/2000/svg" viewBox="0 0 240 220"><ellipse cx="120.0" cy="208" rx="60" ry="8" fill="#05030f" opacity=".35"/><path d="M10 100 H230" fill="none" stroke="#8d80f0" stroke-width="3.5" stroke-linecap="round" stroke-linejoin="round" opacity="0.8"/><path d="M48 24 C48 210 192 210 192 24" fill="none" stroke="#5a4cc2" stroke-width="37" stroke-linecap="round" stroke-linejoin="round"/><path d="M48 24 C48 210 192 210 192 24" fill="none" stroke="#2b2263" stroke-width="26" stroke-linecap="round" stroke-linejoin="round"/><circle cx="53" cy="100" r="8" fill="#f7efdc"/><circle cx="187" cy="100" r="8" fill="#f7efdc"/><circle cx="120" cy="158" r="42" fill="#2b2263" stroke="#5a4cc2" stroke-width="6"/><path d="M92 146 A30 30 0 0 1 106 128" fill="none" stroke="#8d80f0" stroke-width="5" stroke-linecap="round" stroke-linejoin="round" opacity="0.55"/><circle cx="104" cy="150" r="15" fill="#ff8a6e" opacity=".22"/><path d="M93 150 a11 9.3 0 0 0 22 0 z" fill="#ff8a6e"/><ellipse cx="105.3" cy="154.0" rx="2.3" ry="4.2" fill="#1a0d12"/><path d="M90 143 L116 152" stroke="#0e0a2a" stroke-width="4.8" stroke-linecap="round"/><circle cx="136" cy="150" r="15" fill="#ff8a6e" opacity=".22"/><path d="M125 150 a11 9.3 0 0 0 22 0 z" fill="#ff8a6e"/><ellipse cx="134.7" cy="154.0" rx="2.3" ry="4.2" fill="#1a0d12"/><path d="M150 143 L124 152" stroke="#0e0a2a" stroke-width="4.8" stroke-linecap="round"/><path d="M96.0 168 Q120 175 144.0 168 Q120 189 96.0 168 Z" fill="#0a0820" stroke="#0a0820" stroke-width="3" stroke-linejoin="round"/><path d="M101.8 170.4 l9.1 5.3 l9.1 -5.3 l9.1 5.3 l9.1 -5.3" fill="none" stroke="#f7efdc" stroke-width="3.0" stroke-linejoin="round" stroke-linecap="round"/><text x="120" y="60" text-anchor="middle" font-family="Arial, Helvetica, sans-serif" font-weight="700" font-size="30" fill="#8d80f0" opacity="1">x²</text></svg>