<svg xmlns="http://www.w3.org/2000/svg" viewBox="0 0 240 220"><ellipse cx="120.0" cy="204" rx="91" ry="8" fill="#05030f" opacity=".35"/><rect x="43.0" y="176" width="30" height="22" rx="8" fill="#2b2263" stroke="#5a4cc2" stroke-width="5"/><rect x="167.0" y="176" width="30" height="22" rx="8" fill="#2b2263" stroke="#5a4cc2" stroke-width="5"/><path d="M96 124 H146" fill="none" stroke="#5a4cc2" stroke-width="19" stroke-linecap="round" stroke-linejoin="round"/><path d="M96 124 H146" fill="none" stroke="#2b2263" stroke-width="8" stroke-linecap="round" stroke-linejoin="round"/><path d="M96 148 H146" fill="none" stroke="#5a4cc2" stroke-width="19" stroke-linecap="round" stroke-linejoin="round"/><path d="M96 148 H146" fill="none" stroke="#2b2263" stroke-width="8" stroke-linecap="round" stroke-linejoin="round"/><circle cx="58" cy="136" r="42" fill="#2b2263" stroke="#5a4cc2" stroke-width="6"/><rect x="140" y="94" width="84" height="84" rx="8" fill="#2b2263" stroke="#5a4cc2" stroke-width="6" stroke-linejoin="round"/><circle cx="58" cy="128" r="20" fill="#ff8a6e" opacity=".2"/><circle cx="58" cy="128" r="14" fill="#ff8a6e"/><ellipse cx="58" cy="130.1" rx="2.9" ry="8.4" fill="#1a0d12"/><path d="M41 120 Q58 110 75 120" stroke="#0e0a2a" stroke-width="4.2" fill="none" stroke-linecap="round"/><path d="M43.0 154 Q58 160 73.0 154" stroke="#0a0820" stroke-width="4.0" fill="none" stroke-linecap="round"/><path d="M50 156 l2.4 5.1 3.0 -3.9 M60 158 l3.0 3.9 2.4 -5.1" fill="none" stroke="#f7efdc" stroke-width="3.0" stroke-linejoin="round" stroke-linecap="round"/><circle cx="182" cy="128" r="20" fill="#ff8a6e" opacity=".2"/><circle cx="182" cy="128" r="14" fill="#ff8a6e"/><ellipse cx="182" cy="130.1" rx="2.9" ry="8.4" fill="#1a0d12"/><path d="M165 120 Q182 110 199 120" stroke="#0e0a2a" stroke-width="4.2" fill="none" stroke-linecap="round"/><path d="M167.0 154 Q182 160 197.0 154" stroke="#0a0820" stroke-width="4.0" fill="none" stroke-linecap="round"/><path d="M174 156 l2.4 5.1 3.0 -3.9 M184 158 l3.0 3.9 2.4 -5.1" fill="none" stroke="#f7efdc" stroke-width="3.0" stroke-linejoin="round" stroke-linecap="round"/><text x="58" y="84" text-anchor="middle" font-family="Arial, Helvetica, sans-serif" font-weight="700" font-size="15" fill="#8d80f0" opacity="1">● + ▲</text><text x="182" y="84" text-anchor="middle" font-family="Arial, Helvetica, sans-serif" font-weight="700" font-size="17" fill="#8d80f0" opacity="1">■</text></svg>