<svg xmlns="http://www.w3.org/2000/svg" viewBox="0 0 240 220"><path d="M22 156 H218" fill="none" stroke="#8d80f0" stroke-width="25" stroke-linecap="round" stroke-linejoin="round"/><path d="M22 156 H218" fill="none" stroke="#40358f" stroke-width="14" stroke-linecap="round" stroke-linejoin="round"/><path d="M10 156 l12 -9 v18 z M230 156 l-12 -9 v18 z" fill="#b9b3f5" stroke="#b9b3f5" stroke-width="2" stroke-linecap="round" stroke-linejoin="round" opacity="0.9"/><path d="M58 146 v20" fill="none" stroke="#f7efdc" stroke-width="3.5" stroke-linecap="round" stroke-linejoin="round" opacity="0.9"/><text x="58" y="194" text-anchor="middle" font-family="Arial, Helvetica, sans-serif" font-weight="700" font-size="18" fill="#b9b3f5" opacity="1">−1</text><path d="M120 146 v20" fill="none" stroke="#f7efdc" stroke-width="3.5" stroke-linecap="round" stroke-linejoin="round" opacity="0.9"/><text x="120" y="194" text-anchor="middle" font-family="Arial, Helvetica, sans-serif" font-weight="700" font-size="18" fill="#b9b3f5" opacity="1">0</text><path d="M182 146 v20" fill="none" stroke="#f7efdc" stroke-width="3.5" stroke-linecap="round" stroke-linejoin="round" opacity="0.9"/><text x="182" y="194" text-anchor="middle" font-family="Arial, Helvetica, sans-serif" font-weight="700" font-size="18" fill="#b9b3f5" opacity="1">1</text><circle cx="120" cy="112" r="40" fill="#40358f" stroke="#8d80f0" stroke-width="6"/><path d="M92 100 A30 30 0 0 1 108 82" fill="none" stroke="#b9b3f5" stroke-width="5" stroke-linecap="round" stroke-linejoin="round" opacity="0.55"/><path d="M112.8 99.0 L98.5 107.3 L112.8 115.5" fill="none" stroke="#ff8a6e" stroke-width="4.0" stroke-linecap="round" stroke-linejoin="round"/><path d="M127.2 99.0 L141.5 107.3 L127.2 115.5" fill="none" stroke="#ff8a6e" stroke-width="4.0" stroke-linecap="round" stroke-linejoin="round"/><path d="M102.5 127.5 l5.8 4.0 l5.8 -4.0 l5.8 4.0 l5.8 -4.0 l5.8 4.0 l5.8 -4.0" fill="none" stroke="#0a0820" stroke-width="7.0" stroke-linejoin="round" stroke-linecap="round"/><path d="M102.5 127.5 l5.8 4.0 l5.8 -4.0 l5.8 4.0 l5.8 -4.0 l5.8 4.0 l5.8 -4.0" fill="none" stroke="#f7efdc" stroke-width="3.0" stroke-linejoin="round" stroke-linecap="round"/><text x="40" y="84" text-anchor="middle" font-family="Arial, Helvetica, sans-serif" font-weight="700" font-size="26" fill="#b9b3f5" opacity="1">N</text><text x="200" y="78" text-anchor="middle" font-family="Arial, Helvetica, sans-serif" font-weight="700" font-size="26" fill="#b9b3f5" opacity="1">Z</text><text x="204" y="118" text-anchor="middle" font-family="Arial, Helvetica, sans-serif" font-weight="700" font-size="18" fill="#b9b3f5" opacity="0.7">Q</text><path d="M24 44 q-7 12 0 17 q7 -5 0 -17z M216 31 q-7 12 0 17 q7 -5 0 -17z" fill="#8fd7ff" stroke="#101a2c" stroke-width="2"/></svg>