<svg xmlns="http://www.w3.org/2000/svg" viewBox="0 0 240 220"><ellipse cx="120.0" cy="206" rx="91" ry="8" fill="#05030f" opacity=".35"/><path d="M12 52 L228 156 M22 178 L220 36" fill="none" stroke="#8d80f0" stroke-width="8" stroke-linecap="round" stroke-linejoin="round" opacity="1"/><path d="M34 30 H206" fill="none" stroke="#b9b3f5" stroke-width="4" stroke-linecap="round" stroke-linejoin="round" opacity="0.8"/><rect x="77.0" y="180" width="30" height="22" rx="8" fill="#40358f" stroke="#8d80f0" stroke-width="5"/><rect x="133.0" y="180" width="30" height="22" rx="8" fill="#40358f" stroke="#8d80f0" stroke-width="5"/><circle cx="120" cy="108" r="76" fill="#40358f" stroke="#8d80f0" stroke-width="6"/><path d="M52 71 L188 137 M60 151 L182 63" fill="none" stroke="#f7efdc" stroke-width="3" stroke-linecap="round" stroke-linejoin="round" opacity="0.45"/><path d="M106.8 92.8 L86.0 104.8 L106.8 116.8" fill="none" stroke="#ff8a6e" stroke-width="5.8" stroke-linecap="round" stroke-linejoin="round"/><path d="M133.2 92.8 L154.0 104.8 L133.2 116.8" fill="none" stroke="#ff8a6e" stroke-width="5.8" stroke-linecap="round" stroke-linejoin="round"/><path d="M85.8 144.8 l5.7 7.2 l5.7 -7.2 l5.7 7.2 l5.7 -7.2 l5.7 7.2 l5.7 -7.2 l5.7 7.2 l5.7 -7.2 l5.7 7.2 l5.7 -7.2 l5.7 7.2 l5.7 -7.2" fill="none" stroke="#0a0820" stroke-width="11.7" stroke-linejoin="round" stroke-linecap="round"/><path d="M85.8 144.8 l5.7 7.2 l5.7 -7.2 l5.7 7.2 l5.7 -7.2 l5.7 7.2 l5.7 -7.2 l5.7 7.2 l5.7 -7.2 l5.7 7.2 l5.7 -7.2 l5.7 7.2 l5.7 -7.2" fill="none" stroke="#f7efdc" stroke-width="4.0" stroke-linejoin="round" stroke-linecap="round"/><path d="M24 44 q-7 12 0 17 q7 -5 0 -17z M216 31 q-7 12 0 17 q7 -5 0 -17z" fill="#8fd7ff" stroke="#101a2c" stroke-width="2"/></svg>