<svg xmlns="http://www.w3.org/2000/svg" viewBox="0 0 240 220"><path d="M98 198 A30 56 0 0 1 158 198" fill="none" stroke="#8d80f0" stroke-width="35" stroke-linecap="round" stroke-linejoin="round"/><path d="M98 198 A30 56 0 0 1 158 198" fill="none" stroke="#40358f" stroke-width="24" stroke-linecap="round" stroke-linejoin="round"/><path d="M170 198 A22 36 0 0 1 214 198" fill="none" stroke="#8d80f0" stroke-width="31" stroke-linecap="round" stroke-linejoin="round"/><path d="M170 198 A22 36 0 0 1 214 198" fill="none" stroke="#40358f" stroke-width="20" stroke-linecap="round" stroke-linejoin="round"/><path d="M50 100 V198" fill="none" stroke="#8d80f0" stroke-width="37" stroke-linecap="round" stroke-linejoin="round"/><path d="M50 100 V198" fill="none" stroke="#40358f" stroke-width="26" stroke-linecap="round" stroke-linejoin="round"/><circle cx="50" cy="72" r="36" fill="#40358f" stroke="#8d80f0" stroke-width="6"/><path d="M26 62 A26 26 0 0 1 40 46" fill="none" stroke="#b9b3f5" stroke-width="5" stroke-linecap="round" stroke-linejoin="round" opacity="0.55"/><path d="M44.0 59.5 L31.0 67.0 L44.0 74.5" fill="none" stroke="#ff8a6e" stroke-width="3.6" stroke-linecap="round" stroke-linejoin="round"/><path d="M56.0 59.5 L69.0 67.0 L56.0 74.5" fill="none" stroke="#ff8a6e" stroke-width="3.6" stroke-linecap="round" stroke-linejoin="round"/><path d="M34.8 86.8 l5.1 4.0 l5.1 -4.0 l5.1 4.0 l5.1 -4.0 l5.1 4.0 l5.1 -4.0" fill="none" stroke="#0a0820" stroke-width="7.0" stroke-linejoin="round" stroke-linecap="round"/><path d="M34.8 86.8 l5.1 4.0 l5.1 -4.0 l5.1 4.0 l5.1 -4.0 l5.1 4.0 l5.1 -4.0" fill="none" stroke="#f7efdc" stroke-width="3.0" stroke-linejoin="round" stroke-linecap="round"/><text x="128" y="134" text-anchor="middle" font-family="Arial, Helvetica, sans-serif" font-weight="700" font-size="20" fill="#f7efdc" opacity="1">x²</text><text x="192" y="158" text-anchor="middle" font-family="Arial, Helvetica, sans-serif" font-weight="700" font-size="18" fill="#f7efdc" opacity="1">x</text><text x="92" y="60" text-anchor="middle" font-family="Arial, Helvetica, sans-serif" font-weight="700" font-size="22" fill="#b9b3f5" opacity="1">x³</text><path d="M4 204 q12 -8 24 0 t24 0 t24 0 t24 0 t24 0 t24 0 t24 0 t24 0 t24 0 t24 0" fill="none" stroke="#b9b3f5" stroke-width="3.5" stroke-linecap="round" stroke-linejoin="round" opacity="0.7"/><path d="M24 44 q-7 12 0 17 q7 -5 0 -17z M216 31 q-7 12 0 17 q7 -5 0 -17z" fill="#8fd7ff" stroke="#101a2c" stroke-width="2"/></svg>