<svg xmlns="http://www.w3.org/2000/svg" viewBox="0 0 240 220"><ellipse cx="120.0" cy="204" rx="91" ry="8" fill="#05030f" opacity=".35"/><rect x="36" y="116" width="76" height="40" rx="8" fill="#40358f" stroke="#8d80f0" stroke-width="6" stroke-linejoin="round"/><rect x="36" y="156" width="76" height="40" rx="8" fill="#40358f" stroke="#8d80f0" stroke-width="6" stroke-linejoin="round"/><rect x="128" y="76" width="76" height="40" rx="8" fill="#40358f" stroke="#8d80f0" stroke-width="6" stroke-linejoin="round"/><rect x="128" y="116" width="76" height="40" rx="8" fill="#40358f" stroke="#8d80f0" stroke-width="6" stroke-linejoin="round"/><rect x="128" y="156" width="76" height="40" rx="8" fill="#40358f" stroke="#8d80f0" stroke-width="6" stroke-linejoin="round"/><path d="M68.2 129.9 L56.5 136.7 L68.2 143.4" fill="none" stroke="#ff8a6e" stroke-width="3.5" stroke-linecap="round" stroke-linejoin="round"/><path d="M79.8 129.9 L91.5 136.7 L79.8 143.4" fill="none" stroke="#ff8a6e" stroke-width="3.5" stroke-linecap="round" stroke-linejoin="round"/><path d="M55.8 171.8 l6.1 4.0 l6.1 -4.0 l6.1 4.0 l6.1 -4.0 l6.1 4.0 l6.1 -4.0" fill="none" stroke="#0a0820" stroke-width="7.0" stroke-linejoin="round" stroke-linecap="round"/><path d="M55.8 171.8 l6.1 4.0 l6.1 -4.0 l6.1 4.0 l6.1 -4.0 l6.1 4.0 l6.1 -4.0" fill="none" stroke="#f7efdc" stroke-width="3.0" stroke-linejoin="round" stroke-linecap="round"/><path d="M160.2 90.0 L148.5 96.7 L160.2 103.5" fill="none" stroke="#ff8a6e" stroke-width="3.5" stroke-linecap="round" stroke-linejoin="round"/><path d="M171.8 90.0 L183.5 96.7 L171.8 103.5" fill="none" stroke="#ff8a6e" stroke-width="3.5" stroke-linecap="round" stroke-linejoin="round"/><path d="M147.8 131.8 l6.1 4.0 l6.1 -4.0 l6.1 4.0 l6.1 -4.0 l6.1 4.0 l6.1 -4.0" fill="none" stroke="#0a0820" stroke-width="7.0" stroke-linejoin="round" stroke-linecap="round"/><path d="M147.8 131.8 l6.1 4.0 l6.1 -4.0 l6.1 4.0 l6.1 -4.0 l6.1 4.0 l6.1 -4.0" fill="none" stroke="#f7efdc" stroke-width="3.0" stroke-linejoin="round" stroke-linecap="round"/><circle cx="120" cy="124" r="6" fill="#f7efdc"/><circle cx="120" cy="150" r="6" fill="#f7efdc"/><text x="74" y="100" text-anchor="middle" font-family="Arial, Helvetica, sans-serif" font-weight="700" font-size="26" fill="#b9b3f5" opacity="1">2</text><text x="166" y="60" text-anchor="middle" font-family="Arial, Helvetica, sans-serif" font-weight="700" font-size="26" fill="#b9b3f5" opacity="1">3</text><path d="M24 44 q-7 12 0 17 q7 -5 0 -17z M216 31 q-7 12 0 17 q7 -5 0 -17z" fill="#8fd7ff" stroke="#101a2c" stroke-width="2"/></svg>